<svg xmlns="http://www.w3.org/2000/svg" xmlns:xlink="http://www.w3.org/1999/xlink" id="terminal" width="1016" baseProfile="full" version="1.1" viewBox="0 0 1016 563"><defs><termtosvg:template_settings xmlns:termtosvg="https://github.com/nbedos/termtosvg"><termtosvg:screen_geometry columns="127" rows="33"/><termtosvg:animation type="css"/></termtosvg:template_settings><style id="generated-style" type="text/css">@keyframes roll{0%{transform:translateY(0)}1.906%{transform:translateY(-578px)}4.772%{transform:translateY(-1156px)}6.168%{transform:translateY(-1734px)}6.713%{transform:translateY(-2312px)}7.734%{transform:translateY(-2890px)}15.815%{transform:translateY(-3468px)}23.405%{transform:translateY(-4046px)}23.419%{transform:translateY(-4624px)}23.678%{transform:translateY(-5202px)}82.763%{transform:translateY(-5780px)}82.776%{transform:translateY(-6358px)}82.783%{transform:translateY(-6936px)}82.797%{transform:translateY(-7514px)}93.192%{transform:translateY(-8092px)}}#screen{font-family:&apos;DejaVu Sans Mono&apos;,monospace;font-style:normal;font-size:14px}text{dominant-baseline:text-before-edge;white-space:pre}:root{--animation-duration:14689ms}#screen_view{animation-duration:14689ms;animation-iteration-count:infinite;animation-name:roll;animation-timing-function:steps(1,end);animation-fill-mode:forwards}</style><style id="user-style" type="text/css">.foreground{fill:#ccc}.background{fill:#0c0c0c}.color2{fill:#13a10e}.color4{fill:#0037da}.color10{fill:#16c60c}.color14{fill:#61d6d6}.color15{fill:#f2f2f2}</style></defs><svg id="screen" width="1016" height="561" preserveAspectRatio="xMidYMin slice" viewBox="0 0 1016 561"><rect width="100%" height="100%" x="0" y="0" class="background"/><defs><g id="g2"><text x="0" class="foreground" textLength="144">nikhil@purpleterm</text><text x="144" class="color14" font-weight="bold" textLength="8">~</text><text x="152" class="color15" font-weight="bold" textLength="24">%</text></g><g id="g3"><text x="0" class="foreground" textLength="144">nikhil@purpleterm</text><text x="144" class="color14" font-weight="bold" textLength="8">~</text><text x="152" class="color15" font-weight="bold" textLength="24">%</text><text x="176" class="foreground" textLength="8">k</text></g><g id="g4"><text x="0" class="foreground" textLength="144">nikhil@purpleterm</text><text x="144" class="color14" font-weight="bold" textLength="8">~</text><text x="152" class="color15" font-weight="bold" textLength="24">%</text><text x="176" class="foreground" textLength="16">ki</text></g><g id="g5"><text x="0" class="foreground" textLength="144">nikhil@purpleterm</text><text x="144" class="color14" font-weight="bold" textLength="8">~</text><text x="152" class="color15" font-weight="bold" textLength="24">%</text><text x="176" class="foreground" textLength="24">kin</text></g><g id="g6"><text x="0" class="foreground" textLength="144">nikhil@purpleterm</text><text x="144" class="color14" font-weight="bold" textLength="8">~</text><text x="152" class="color15" font-weight="bold" textLength="24">%</text><text x="176" class="foreground" textLength="32">kind</text></g><g id="g7"><text x="0" class="foreground" textLength="144">nikhil@purpleterm</text><text x="144" class="color14" font-weight="bold" textLength="8">~</text><text x="152" class="color15" font-weight="bold" textLength="24">%</text><text x="176" class="foreground" textLength="496">kindle-send --file The-Big-Censored-Theory-or-Hacker-News.epub</text></g><g id="g8"><text x="0" class="foreground" textLength="144">nikhil@purpleterm</text><text x="144" class="color14" font-weight="bold" textLength="8">~</text><text x="152" class="color15" font-weight="bold" textLength="24">%</text><text x="176" class="foreground" textLength="840">kindle-send --file The-Big-Censored-Theory-or-Hacker-News.epub</text></g><g id="g9"><text x="0" class="color2" textLength="160">Loaded configuration</text></g><g id="g10"><text x="0" class="color14" font-weight="bold" textLength="96">Sending mail</text></g><g id="g11"><text x="0" class="color10" font-weight="bold" textLength="352">Mailed 1 files to purple_terminal@kindle.com</text></g><g id="g12"><text x="0" class="color10" font-weight="bold" textLength="352">Mailed 1 files to purple_terminal@kindle.com</text><text x="352" class="background" font-weight="bold" textLength="8">%</text></g><g id="g14"><text x="0" class="foreground" textLength="144">nikhil@purpleterm</text><text x="144" class="color14" font-weight="bold" textLength="8">~</text><text x="152" class="color15" font-weight="bold" textLength="24">%</text></g></defs><g id="screen_view"><g><rect width="8" height="17" x="0" y="0" class="foreground"/><use y="0" xlink:href="#g1"/></g><g><rect width="136" height="17" x="0" y="578" class="color4"/><rect width="8" height="17" x="176" y="578" class="foreground"/><use y="578" xlink:href="#g2"/></g><g><rect width="136" height="17" x="0" y="1156" class="color4"/><rect width="8" height="17" x="184" y="1156" class="foreground"/><use y="1156" xlink:href="#g3"/></g><g><rect width="136" height="17" x="0" y="1734" class="color4"/><rect width="8" height="17" x="192" y="1734" class="foreground"/><use y="1734" xlink:href="#g4"/></g><g><rect width="136" height="17" x="0" y="2312" class="color4"/><rect width="8" height="17" x="200" y="2312" class="foreground"/><use y="2312" xlink:href="#g5"/></g><g><rect width="136" height="17" x="0" y="2890" class="color4"/><rect width="8" height="17" x="208" y="2890" class="foreground"/><use y="2890" xlink:href="#g6"/></g><g><rect width="136" height="17" x="0" y="3468" class="color4"/><rect width="8" height="17" x="672" y="3468" class="foreground"/><use y="3468" xlink:href="#g7"/></g><g><rect width="136" height="17" x="0" y="4046" class="color4"/><rect width="8" height="17" x="672" y="4046" class="foreground"/><use y="4046" xlink:href="#g7"/></g><g><rect width="136" height="17" x="0" y="4624" class="color4"/><use y="4624" xlink:href="#g8"/><rect width="8" height="17" x="0" y="4641" class="foreground"/><use y="4641" xlink:href="#g1"/></g><g><rect width="136" height="17" x="0" y="5202" class="color4"/><use y="5202" xlink:href="#g8"/><use y="5219" xlink:href="#g9"/><use y="5236" xlink:href="#g10"/><rect width="8" height="17" x="0" y="5253" class="foreground"/><use y="5253" xlink:href="#g1"/></g><g><rect width="136" height="17" x="0" y="5780" class="color4"/><use y="5780" xlink:href="#g8"/><use y="5797" xlink:href="#g9"/><use y="5814" xlink:href="#g10"/><rect width="8" height="17" x="352" y="5831" class="foreground"/><use y="5831" xlink:href="#g11"/></g><g><rect width="136" height="17" x="0" y="6358" class="color4"/><use y="6358" xlink:href="#g8"/><use y="6375" xlink:href="#g9"/><use y="6392" xlink:href="#g10"/><rect width="8" height="17" x="352" y="6409" class="foreground"/><use y="6409" xlink:href="#g12"/><rect width="8" height="17" x="0" y="6426" class="foreground"/><use y="6426" xlink:href="#g13"/></g><g><rect width="136" height="17" x="0" y="6936" class="color4"/><use y="6936" xlink:href="#g8"/><use y="6953" xlink:href="#g9"/><use y="6970" xlink:href="#g10"/><rect width="8" height="17" x="352" y="6987" class="foreground"/><use y="6987" xlink:href="#g12"/><rect width="136" height="17" x="0" y="7004" class="color4"/><rect width="8" height="17" x="176" y="7004" class="foreground"/><use y="7004" xlink:href="#g2"/></g><g><rect width="136" height="17" x="0" y="7514" class="color4"/><use y="7514" xlink:href="#g8"/><use y="7531" xlink:href="#g9"/><use y="7548" xlink:href="#g10"/><rect width="8" height="17" x="352" y="7565" class="foreground"/><use y="7565" xlink:href="#g12"/><rect width="136" height="17" x="0" y="7582" class="color4"/><rect width="8" height="17" x="176" y="7582" class="foreground"/><use y="7582" xlink:href="#g2"/></g><g><rect width="136" height="17" x="0" y="8092" class="color4"/><use y="8092" xlink:href="#g8"/><use y="8109" xlink:href="#g9"/><use y="8126" xlink:href="#g10"/><rect width="8" height="17" x="352" y="8143" class="foreground"/><use y="8143" xlink:href="#g12"/><rect width="136" height="17" x="0" y="8160" class="color4"/><use y="8160" xlink:href="#g14"/><rect width="8" height="17" x="0" y="8177" class="foreground"/><use y="8177" xlink:href="#g1"/></g></g></svg></svg>