<svg xmlns="http://www.w3.org/2000/svg" xmlns:xlink="http://www.w3.org/1999/xlink" id="terminal" width="848" baseProfile="full" version="1.1" viewBox="0 0 848 461"><defs><termtosvg:template_settings xmlns:termtosvg="https://github.com/nbedos/termtosvg"><termtosvg:screen_geometry columns="106" rows="27"/><termtosvg:animation type="css"/></termtosvg:template_settings><style id="generated-style" type="text/css">@keyframes roll{0%{transform:translateY(0)}1.247%{transform:translateY(-476px)}3.209%{transform:translateY(-952px)}4.145%{transform:translateY(-1428px)}4.469%{transform:translateY(-1904px)}4.984%{transform:translateY(-2380px)}5.383%{transform:translateY(-2856px)}5.894%{transform:translateY(-3332px)}6.626%{transform:translateY(-3808px)}7.23%{transform:translateY(-4284px)}7.94%{transform:translateY(-4760px)}8.517%{transform:translateY(-5236px)}8.907%{transform:translateY(-5712px)}9.475%{transform:translateY(-6188px)}10.492%{transform:translateY(-6664px)}11.157%{transform:translateY(-7140px)}13.377%{transform:translateY(-7616px)}14.02%{transform:translateY(-8092px)}14.646%{transform:translateY(-8568px)}15.405%{transform:translateY(-9044px)}16.377%{transform:translateY(-9520px)}19.426%{transform:translateY(-9996px)}21.019%{transform:translateY(-10472px)}22.266%{transform:translateY(-10948px)}23.349%{transform:translateY(-11424px)}24.015%{transform:translateY(-11900px)}24.614%{transform:translateY(-12376px)}25.146%{transform:translateY(-12852px)}25.746%{transform:translateY(-13328px)}26.238%{transform:translateY(-13804px)}26.988%{transform:translateY(-14280px)}28.151%{transform:translateY(-14756px)}29.5%{transform:translateY(-15232px)}31.165%{transform:translateY(-15708px)}31.897%{transform:translateY(-16184px)}32.674%{transform:translateY(-16660px)}32.984%{transform:translateY(-17136px)}33.472%{transform:translateY(-17612px)}34.014%{transform:translateY(-18088px)}34.786%{transform:translateY(-18564px)}35.478%{transform:translateY(-19040px)}36.473%{transform:translateY(-19516px)}37.338%{transform:translateY(-19992px)}38.345%{transform:translateY(-20468px)}39.828%{transform:translateY(-20944px)}40.853%{transform:translateY(-21420px)}41.803%{transform:translateY(-21896px)}42.535%{transform:translateY(-22372px)}42.979%{transform:translateY(-22848px)}43.867%{transform:translateY(-23324px)}44.825%{transform:translateY(-23800px)}45.287%{transform:translateY(-24276px)}46.152%{transform:translateY(-24752px)}47.217%{transform:translateY(-25228px)}47.705%{transform:translateY(-25704px)}48.331%{transform:translateY(-26180px)}48.819%{transform:translateY(-26656px)}50.439%{transform:translateY(-27132px)}52.081%{transform:translateY(-27608px)}52.095%{transform:translateY(-28084px)}52.268%{transform:translateY(-28560px)}56.462%{transform:translateY(-29036px)}56.466%{transform:translateY(-29512px)}62.098%{transform:translateY(-29988px)}62.116%{transform:translateY(-30464px)}62.271%{transform:translateY(-30940px)}85.989%{transform:translateY(-31416px)}86.007%{transform:translateY(-31892px)}86.015%{transform:translateY(-32368px)}95.562%{transform:translateY(-32844px)}}#screen{font-family:&apos;DejaVu Sans Mono&apos;,monospace;font-style:normal;font-size:14px}text{dominant-baseline:text-before-edge;white-space:pre}:root{--animation-duration:22532ms}#screen_view{animation-duration:22532ms;animation-iteration-count:infinite;animation-name:roll;animation-timing-function:steps(1,end);animation-fill-mode:forwards}</style><style id="user-style" type="text/css">.foreground{fill:#ccc}.background{fill:#0c0c0c}.color2{fill:#13a10e}.color4{fill:#0037da}.color6{fill:#3a96dd}.color10{fill:#16c60c}.color14{fill:#61d6d6}.color15{fill:#f2f2f2}</style></defs><svg id="screen" width="848" height="459" preserveAspectRatio="xMidYMin slice" viewBox="0 0 848 459"><rect width="100%" height="100%" x="0" y="0" class="background"/><defs><g id="g2"><text x="0" class="foreground" textLength="144">nikhil@purpleterm</text><text x="144" class="color10" font-weight="bold" textLength="216">~/Projects/kindle-send/dist</text></g><g id="g3"><text x="0" class="color15" font-weight="bold" textLength="24">%</text></g><g id="g4"><text x="0" class="color15" font-weight="bold" textLength="24">%</text><text x="24" class="foreground" textLength="8">k</text></g><g id="g5"><text x="0" class="color15" font-weight="bold" textLength="24">%</text><text x="24" class="foreground" textLength="16">ki</text></g><g id="g6"><text x="0" class="color15" font-weight="bold" textLength="24">%</text><text x="24" class="foreground" textLength="24">kin</text></g><g id="g7"><text x="0" class="color15" font-weight="bold" textLength="24">%</text><text x="24" class="foreground" textLength="32">kind</text></g><g id="g8"><text x="0" class="color15" font-weight="bold" textLength="24">%</text><text x="24" class="foreground" textLength="40">kindl</text></g><g id="g9"><text x="0" class="color15" font-weight="bold" textLength="24">%</text><text x="24" class="foreground" textLength="48">kindle</text></g><g id="g10"><text x="0" class="color15" font-weight="bold" textLength="24">%</text><text x="24" class="foreground" textLength="56">kindle-</text></g><g id="g11"><text x="0" class="color15" font-weight="bold" textLength="24">%</text><text x="24" class="foreground" textLength="64">kindle-s</text></g><g id="g12"><text x="0" class="color15" font-weight="bold" textLength="24">%</text><text x="24" class="foreground" textLength="72">kindle-se</text></g><g id="g13"><text x="0" class="color15" font-weight="bold" textLength="24">%</text><text x="24" class="foreground" textLength="80">kindle-sen</text></g><g id="g14"><text x="0" class="color15" font-weight="bold" textLength="24">%</text><text x="24" class="foreground" textLength="88">kindle-send</text></g><g id="g15"><text x="0" class="color15" font-weight="bold" textLength="24">%</text><text x="24" class="foreground" textLength="96">kindle-send</text></g><g id="g16"><text x="0" class="color15" font-weight="bold" textLength="24">%</text><text x="24" class="foreground" textLength="104">kindle-send -</text></g><g id="g17"><text x="0" class="color15" font-weight="bold" textLength="24">%</text><text x="24" class="foreground" textLength="112">kindle-send --</text></g><g id="g18"><text x="0" class="color15" font-weight="bold" textLength="24">%</text><text x="24" class="foreground" textLength="120">kindle-send --u</text></g><g id="g19"><text x="0" class="color15" font-weight="bold" textLength="24">%</text><text x="24" class="foreground" textLength="128">kindle-send --ur</text></g><g id="g20"><text x="0" class="color15" font-weight="bold" textLength="24">%</text><text x="24" class="foreground" textLength="136">kindle-send --url</text></g><g id="g21"><text x="0" class="color15" font-weight="bold" textLength="24">%</text><text x="24" class="foreground" textLength="144">kindle-send --url</text></g><g id="g22"><text x="0" class="color15" font-weight="bold" textLength="24">%</text><text x="24" class="foreground" textLength="152">kindle-send --url &quot;</text></g><g id="g23"><text x="0" class="color15" font-weight="bold" textLength="24">%</text><text x="24" class="foreground" textLength="152">kindle-send --url &quot;</text><text x="176" class="background" textLength="256">http://paulgraham.com/noob.html</text></g><g id="g24"><text x="0" class="color15" font-weight="bold" textLength="24">%</text><text x="24" class="foreground" textLength="408">kindle-send --url &quot;http://paulgraham.com/noob.html&quot;</text></g><g id="g25"><text x="0" class="color15" font-weight="bold" textLength="24">%</text><text x="24" class="foreground" textLength="416">kindle-send --url &quot;http://paulgraham.com/noob.html&quot;</text></g><g id="g26"><text x="0" class="color15" font-weight="bold" textLength="24">%</text><text x="24" class="foreground" textLength="424">kindle-send --url &quot;http://paulgraham.com/noob.html&quot; -</text></g><g id="g27"><text x="0" class="color15" font-weight="bold" textLength="24">%</text><text x="24" class="foreground" textLength="432">kindle-send --url &quot;http://paulgraham.com/noob.html&quot; --</text></g><g id="g28"><text x="0" class="color15" font-weight="bold" textLength="24">%</text><text x="24" class="foreground" textLength="440">kindle-send --url &quot;http://paulgraham.com/noob.html&quot; --t</text></g><g id="g29"><text x="0" class="color15" font-weight="bold" textLength="24">%</text><text x="24" class="foreground" textLength="448">kindle-send --url &quot;http://paulgraham.com/noob.html&quot; --ti</text></g><g id="g30"><text x="0" class="color15" font-weight="bold" textLength="24">%</text><text x="24" class="foreground" textLength="456">kindle-send --url &quot;http://paulgraham.com/noob.html&quot; --tit</text></g><g id="g31"><text x="0" class="color15" font-weight="bold" textLength="24">%</text><text x="24" class="foreground" textLength="464">kindle-send --url &quot;http://paulgraham.com/noob.html&quot; --titl</text></g><g id="g32"><text x="0" class="color15" font-weight="bold" textLength="24">%</text><text x="24" class="foreground" textLength="472">kindle-send --url &quot;http://paulgraham.com/noob.html&quot; --title</text></g><g id="g33"><text x="0" class="color15" font-weight="bold" textLength="24">%</text><text x="24" class="foreground" textLength="480">kindle-send --url &quot;http://paulgraham.com/noob.html&quot; --title</text></g><g id="g34"><text x="0" class="color15" font-weight="bold" textLength="24">%</text><text x="24" class="foreground" textLength="488">kindle-send --url &quot;http://paulgraham.com/noob.html&quot; --title &quot;</text></g><g id="g35"><text x="0" class="color15" font-weight="bold" textLength="24">%</text><text x="24" class="foreground" textLength="496">kindle-send --url &quot;http://paulgraham.com/noob.html&quot; --title &quot;B</text></g><g id="g36"><text x="0" class="color15" font-weight="bold" textLength="24">%</text><text x="24" class="foreground" textLength="504">kindle-send --url &quot;http://paulgraham.com/noob.html&quot; --title &quot;Be</text></g><g id="g37"><text x="0" class="color15" font-weight="bold" textLength="24">%</text><text x="24" class="foreground" textLength="512">kindle-send --url &quot;http://paulgraham.com/noob.html&quot; --title &quot;Bei</text></g><g id="g38"><text x="0" class="color15" font-weight="bold" textLength="24">%</text><text x="24" class="foreground" textLength="520">kindle-send --url &quot;http://paulgraham.com/noob.html&quot; --title &quot;Bein</text></g><g id="g39"><text x="0" class="color15" font-weight="bold" textLength="24">%</text><text x="24" class="foreground" textLength="528">kindle-send --url &quot;http://paulgraham.com/noob.html&quot; --title &quot;Being</text></g><g id="g40"><text x="0" class="color15" font-weight="bold" textLength="24">%</text><text x="24" class="foreground" textLength="536">kindle-send --url &quot;http://paulgraham.com/noob.html&quot; --title &quot;Being</text></g><g id="g41"><text x="0" class="color15" font-weight="bold" textLength="24">%</text><text x="24" class="foreground" textLength="544">kindle-send --url &quot;http://paulgraham.com/noob.html&quot; --title &quot;Being n</text></g><g id="g42"><text x="0" class="color15" font-weight="bold" textLength="24">%</text><text x="24" class="foreground" textLength="552">kindle-send --url &quot;http://paulgraham.com/noob.html&quot; --title &quot;Being no</text></g><g id="g43"><text x="0" class="color15" font-weight="bold" textLength="24">%</text><text x="24" class="foreground" textLength="560">kindle-send --url &quot;http://paulgraham.com/noob.html&quot; --title &quot;Being noo</text></g><g id="g44"><text x="0" class="color15" font-weight="bold" textLength="24">%</text><text x="24" class="foreground" textLength="568">kindle-send --url &quot;http://paulgraham.com/noob.html&quot; --title &quot;Being noob</text></g><g id="g45"><text x="0" class="color15" font-weight="bold" textLength="24">%</text><text x="24" class="foreground" textLength="576">kindle-send --url &quot;http://paulgraham.com/noob.html&quot; --title &quot;Being noob</text></g><g id="g46"><text x="0" class="color15" font-weight="bold" textLength="24">%</text><text x="24" class="foreground" textLength="584">kindle-send --url &quot;http://paulgraham.com/noob.html&quot; --title &quot;Being noob -</text></g><g id="g47"><text x="0" class="color15" font-weight="bold" textLength="24">%</text><text x="24" class="foreground" textLength="592">kindle-send --url &quot;http://paulgraham.com/noob.html&quot; --title &quot;Being noob -</text></g><g id="g48"><text x="0" class="color15" font-weight="bold" textLength="24">%</text><text x="24" class="foreground" textLength="600">kindle-send --url &quot;http://paulgraham.com/noob.html&quot; --title &quot;Being noob - P</text></g><g id="g49"><text x="0" class="color15" font-weight="bold" textLength="24">%</text><text x="24" class="foreground" textLength="608">kindle-send --url &quot;http://paulgraham.com/noob.html&quot; --title &quot;Being noob - Pa</text></g><g id="g50"><text x="0" class="color15" font-weight="bold" textLength="24">%</text><text x="24" class="foreground" textLength="616">kindle-send --url &quot;http://paulgraham.com/noob.html&quot; --title &quot;Being noob - Pau</text></g><g id="g51"><text x="0" class="color15" font-weight="bold" textLength="24">%</text><text x="24" class="foreground" textLength="624">kindle-send --url &quot;http://paulgraham.com/noob.html&quot; --title &quot;Being noob - Paul</text></g><g id="g52"><text x="0" class="color15" font-weight="bold" textLength="24">%</text><text x="24" class="foreground" textLength="632">kindle-send --url &quot;http://paulgraham.com/noob.html&quot; --title &quot;Being noob - Paul</text></g><g id="g53"><text x="0" class="color15" font-weight="bold" textLength="24">%</text><text x="24" class="foreground" textLength="640">kindle-send --url &quot;http://paulgraham.com/noob.html&quot; --title &quot;Being noob - Paul g</text></g><g id="g54"><text x="0" class="color15" font-weight="bold" textLength="24">%</text><text x="24" class="foreground" textLength="648">kindle-send --url &quot;http://paulgraham.com/noob.html&quot; --title &quot;Being noob - Paul gr</text></g><g id="g55"><text x="0" class="color15" font-weight="bold" textLength="24">%</text><text x="24" class="foreground" textLength="656">kindle-send --url &quot;http://paulgraham.com/noob.html&quot; --title &quot;Being noob - Paul gra</text></g><g id="g56"><text x="0" class="color15" font-weight="bold" textLength="24">%</text><text x="24" class="foreground" textLength="664">kindle-send --url &quot;http://paulgraham.com/noob.html&quot; --title &quot;Being noob - Paul grah</text></g><g id="g57"><text x="0" class="color15" font-weight="bold" textLength="24">%</text><text x="24" class="foreground" textLength="672">kindle-send --url &quot;http://paulgraham.com/noob.html&quot; --title &quot;Being noob - Paul graha</text></g><g id="g58"><text x="0" class="color15" font-weight="bold" textLength="24">%</text><text x="24" class="foreground" textLength="680">kindle-send --url &quot;http://paulgraham.com/noob.html&quot; --title &quot;Being noob - Paul graham</text></g><g id="g59"><text x="0" class="color15" font-weight="bold" textLength="24">%</text><text x="24" class="foreground" textLength="688">kindle-send --url &quot;http://paulgraham.com/noob.html&quot; --title &quot;Being noob - Paul graham&quot;</text></g><g id="g60"><text x="0" class="color15" font-weight="bold" textLength="24">%</text><text x="24" class="foreground" textLength="824">kindle-send --url &quot;http://paulgraham.com/noob.html&quot; --title &quot;Being noob - Paul graham&quot;</text></g><g id="g61"><text x="0" class="color2" textLength="160">Loaded configuration</text></g><g id="g62"><text x="0" class="color2" textLength="456">Fetched http://paulgraham.com/noob.html --&gt; Being a Noob</text></g><g id="g63"><text x="0" class="color2" textLength="456">Fetched http://paulgraham.com/noob.html --&gt; Being a Noob</text><text x="456" class="color6" textLength="264">Embedding images in Being a Noob</text></g><g id="g64"><text x="0" class="color14" font-weight="bold" textLength="144">Downloading Images</text></g><g id="g65"><text x="0" class="color2" textLength="552">Downloaded image https://s.yimg.com/aah/paulgraham/being-a-noob-1.gif</text></g><g id="g66"><text x="0" class="color2" textLength="848">Setting img src from https://s.yimg.com/aah/paulgraham/being-a-noob-1.gif to ../images/being-a-noob-1.gif</text></g><g id="g67"><text x="0" class="color2" textLength="128">Added 1 articles</text></g><g id="g68"><text x="0" class="color14" font-weight="bold" textLength="96">Sending mail</text></g><g id="g69"><text x="0" class="color10" font-weight="bold" textLength="352">Mailed 1 files to purple_terminal@kindle.com</text></g><g id="g70"><text x="0" class="color10" font-weight="bold" textLength="352">Mailed 1 files to purple_terminal@kindle.com</text><text x="352" class="background" font-weight="bold" textLength="8">%</text></g><g id="g72"><text x="0" class="color15" font-weight="bold" textLength="24">%</text></g></defs><g id="screen_view"><g><rect width="8" height="17" x="0" y="0" class="foreground"/><use y="0" xlink:href="#g1"/></g><g><rect width="136" height="17" x="0" y="476" class="color4"/><use y="476" xlink:href="#g2"/><rect width="8" height="17" x="24" y="493" class="foreground"/><use y="493" xlink:href="#g3"/></g><g><rect width="136" height="17" x="0" y="952" class="color4"/><use y="952" xlink:href="#g2"/><rect width="8" height="17" x="32" y="969" class="foreground"/><use y="969" xlink:href="#g4"/></g><g><rect width="136" height="17" x="0" y="1428" class="color4"/><use y="1428" xlink:href="#g2"/><rect width="8" height="17" x="40" y="1445" class="foreground"/><use y="1445" xlink:href="#g5"/></g><g><rect width="136" height="17" x="0" y="1904" class="color4"/><use y="1904" xlink:href="#g2"/><rect width="8" height="17" x="48" y="1921" class="foreground"/><use y="1921" xlink:href="#g6"/></g><g><rect width="136" height="17" x="0" y="2380" class="color4"/><use y="2380" xlink:href="#g2"/><rect width="8" height="17" x="56" y="2397" class="foreground"/><use y="2397" xlink:href="#g7"/></g><g><rect width="136" height="17" x="0" y="2856" class="color4"/><use y="2856" xlink:href="#g2"/><rect width="8" height="17" x="64" y="2873" class="foreground"/><use y="2873" xlink:href="#g8"/></g><g><rect width="136" height="17" x="0" y="3332" class="color4"/><use y="3332" xlink:href="#g2"/><rect width="8" height="17" x="72" y="3349" class="foreground"/><use y="3349" xlink:href="#g9"/></g><g><rect width="136" height="17" x="0" y="3808" class="color4"/><use y="3808" xlink:href="#g2"/><rect width="8" height="17" x="80" y="3825" class="foreground"/><use y="3825" xlink:href="#g10"/></g><g><rect width="136" height="17" x="0" y="4284" class="color4"/><use y="4284" xlink:href="#g2"/><rect width="8" height="17" x="88" y="4301" class="foreground"/><use y="4301" xlink:href="#g11"/></g><g><rect width="136" height="17" x="0" y="4760" class="color4"/><use y="4760" xlink:href="#g2"/><rect width="8" height="17" x="96" y="4777" class="foreground"/><use y="4777" xlink:href="#g12"/></g><g><rect width="136" height="17" x="0" y="5236" class="color4"/><use y="5236" xlink:href="#g2"/><rect width="8" height="17" x="104" y="5253" class="foreground"/><use y="5253" xlink:href="#g13"/></g><g><rect width="136" height="17" x="0" y="5712" class="color4"/><use y="5712" xlink:href="#g2"/><rect width="8" height="17" x="112" y="5729" class="foreground"/><use y="5729" xlink:href="#g14"/></g><g><rect width="136" height="17" x="0" y="6188" class="color4"/><use y="6188" xlink:href="#g2"/><rect width="8" height="17" x="120" y="6205" class="foreground"/><use y="6205" xlink:href="#g15"/></g><g><rect width="136" height="17" x="0" y="6664" class="color4"/><use y="6664" xlink:href="#g2"/><rect width="8" height="17" x="128" y="6681" class="foreground"/><use y="6681" xlink:href="#g16"/></g><g><rect width="136" height="17" x="0" y="7140" class="color4"/><use y="7140" xlink:href="#g2"/><rect width="8" height="17" x="136" y="7157" class="foreground"/><use y="7157" xlink:href="#g17"/></g><g><rect width="136" height="17" x="0" y="7616" class="color4"/><use y="7616" xlink:href="#g2"/><rect width="8" height="17" x="144" y="7633" class="foreground"/><use y="7633" xlink:href="#g18"/></g><g><rect width="136" height="17" x="0" y="8092" class="color4"/><use y="8092" xlink:href="#g2"/><rect width="8" height="17" x="152" y="8109" class="foreground"/><use y="8109" xlink:href="#g19"/></g><g><rect width="136" height="17" x="0" y="8568" class="color4"/><use y="8568" xlink:href="#g2"/><rect width="8" height="17" x="160" y="8585" class="foreground"/><use y="8585" xlink:href="#g20"/></g><g><rect width="136" height="17" x="0" y="9044" class="color4"/><use y="9044" xlink:href="#g2"/><rect width="8" height="17" x="168" y="9061" class="foreground"/><use y="9061" xlink:href="#g21"/></g><g><rect width="136" height="17" x="0" y="9520" class="color4"/><use y="9520" xlink:href="#g2"/><rect width="8" height="17" x="176" y="9537" class="foreground"/><use y="9537" xlink:href="#g22"/></g><g><rect width="136" height="17" x="0" y="9996" class="color4"/><use y="9996" xlink:href="#g2"/><rect width="256" height="17" x="176" y="10013" class="foreground"/><use y="10013" xlink:href="#g23"/></g><g><rect width="136" height="17" x="0" y="10472" class="color4"/><use y="10472" xlink:href="#g2"/><rect width="8" height="17" x="432" y="10489" class="foreground"/><use y="10489" xlink:href="#g24"/></g><g><rect width="136" height="17" x="0" y="10948" class="color4"/><use y="10948" xlink:href="#g2"/><rect width="8" height="17" x="440" y="10965" class="foreground"/><use y="10965" xlink:href="#g25"/></g><g><rect width="136" height="17" x="0" y="11424" class="color4"/><use y="11424" xlink:href="#g2"/><rect width="8" height="17" x="448" y="11441" class="foreground"/><use y="11441" xlink:href="#g26"/></g><g><rect width="136" height="17" x="0" y="11900" class="color4"/><use y="11900" xlink:href="#g2"/><rect width="8" height="17" x="456" y="11917" class="foreground"/><use y="11917" xlink:href="#g27"/></g><g><rect width="136" height="17" x="0" y="12376" class="color4"/><use y="12376" xlink:href="#g2"/><rect width="8" height="17" x="464" y="12393" class="foreground"/><use y="12393" xlink:href="#g28"/></g><g><rect width="136" height="17" x="0" y="12852" class="color4"/><use y="12852" xlink:href="#g2"/><rect width="8" height="17" x="472" y="12869" class="foreground"/><use y="12869" xlink:href="#g29"/></g><g><rect width="136" height="17" x="0" y="13328" class="color4"/><use y="13328" xlink:href="#g2"/><rect width="8" height="17" x="480" y="13345" class="foreground"/><use y="13345" xlink:href="#g30"/></g><g><rect width="136" height="17" x="0" y="13804" class="color4"/><use y="13804" xlink:href="#g2"/><rect width="8" height="17" x="488" y="13821" class="foreground"/><use y="13821" xlink:href="#g31"/></g><g><rect width="136" height="17" x="0" y="14280" class="color4"/><use y="14280" xlink:href="#g2"/><rect width="8" height="17" x="496" y="14297" class="foreground"/><use y="14297" xlink:href="#g32"/></g><g><rect width="136" height="17" x="0" y="14756" class="color4"/><use y="14756" xlink:href="#g2"/><rect width="8" height="17" x="504" y="14773" class="foreground"/><use y="14773" xlink:href="#g33"/></g><g><rect width="136" height="17" x="0" y="15232" class="color4"/><use y="15232" xlink:href="#g2"/><rect width="8" height="17" x="512" y="15249" class="foreground"/><use y="15249" xlink:href="#g34"/></g><g><rect width="136" height="17" x="0" y="15708" class="color4"/><use y="15708" xlink:href="#g2"/><rect width="8" height="17" x="520" y="15725" class="foreground"/><use y="15725" xlink:href="#g35"/></g><g><rect width="136" height="17" x="0" y="16184" class="color4"/><use y="16184" xlink:href="#g2"/><rect width="8" height="17" x="528" y="16201" class="foreground"/><use y="16201" xlink:href="#g36"/></g><g><rect width="136" height="17" x="0" y="16660" class="color4"/><use y="16660" xlink:href="#g2"/><rect width="8" height="17" x="536" y="16677" class="foreground"/><use y="16677" xlink:href="#g37"/></g><g><rect width="136" height="17" x="0" y="17136" class="color4"/><use y="17136" xlink:href="#g2"/><rect width="8" height="17" x="544" y="17153" class="foreground"/><use y="17153" xlink:href="#g38"/></g><g><rect width="136" height="17" x="0" y="17612" class="color4"/><use y="17612" xlink:href="#g2"/><rect width="8" height="17" x="552" y="17629" class="foreground"/><use y="17629" xlink:href="#g39"/></g><g><rect width="136" height="17" x="0" y="18088" class="color4"/><use y="18088" xlink:href="#g2"/><rect width="8" height="17" x="560" y="18105" class="foreground"/><use y="18105" xlink:href="#g40"/></g><g><rect width="136" height="17" x="0" y="18564" class="color4"/><use y="18564" xlink:href="#g2"/><rect width="8" height="17" x="568" y="18581" class="foreground"/><use y="18581" xlink:href="#g41"/></g><g><rect width="136" height="17" x="0" y="19040" class="color4"/><use y="19040" xlink:href="#g2"/><rect width="8" height="17" x="576" y="19057" class="foreground"/><use y="19057" xlink:href="#g42"/></g><g><rect width="136" height="17" x="0" y="19516" class="color4"/><use y="19516" xlink:href="#g2"/><rect width="8" height="17" x="584" y="19533" class="foreground"/><use y="19533" xlink:href="#g43"/></g><g><rect width="136" height="17" x="0" y="19992" class="color4"/><use y="19992" xlink:href="#g2"/><rect width="8" height="17" x="592" y="20009" class="foreground"/><use y="20009" xlink:href="#g44"/></g><g><rect width="136" height="17" x="0" y="20468" class="color4"/><use y="20468" xlink:href="#g2"/><rect width="8" height="17" x="600" y="20485" class="foreground"/><use y="20485" xlink:href="#g45"/></g><g><rect width="136" height="17" x="0" y="20944" class="color4"/><use y="20944" xlink:href="#g2"/><rect width="8" height="17" x="608" y="20961" class="foreground"/><use y="20961" xlink:href="#g46"/></g><g><rect width="136" height="17" x="0" y="21420" class="color4"/><use y="21420" xlink:href="#g2"/><rect width="8" height="17" x="616" y="21437" class="foreground"/><use y="21437" xlink:href="#g47"/></g><g><rect width="136" height="17" x="0" y="21896" class="color4"/><use y="21896" xlink:href="#g2"/><rect width="8" height="17" x="624" y="21913" class="foreground"/><use y="21913" xlink:href="#g48"/></g><g><rect width="136" height="17" x="0" y="22372" class="color4"/><use y="22372" xlink:href="#g2"/><rect width="8" height="17" x="632" y="22389" class="foreground"/><use y="22389" xlink:href="#g49"/></g><g><rect width="136" height="17" x="0" y="22848" class="color4"/><use y="22848" xlink:href="#g2"/><rect width="8" height="17" x="640" y="22865" class="foreground"/><use y="22865" xlink:href="#g50"/></g><g><rect width="136" height="17" x="0" y="23324" class="color4"/><use y="23324" xlink:href="#g2"/><rect width="8" height="17" x="648" y="23341" class="foreground"/><use y="23341" xlink:href="#g51"/></g><g><rect width="136" height="17" x="0" y="23800" class="color4"/><use y="23800" xlink:href="#g2"/><rect width="8" height="17" x="656" y="23817" class="foreground"/><use y="23817" xlink:href="#g52"/></g><g><rect width="136" height="17" x="0" y="24276" class="color4"/><use y="24276" xlink:href="#g2"/><rect width="8" height="17" x="664" y="24293" class="foreground"/><use y="24293" xlink:href="#g53"/></g><g><rect width="136" height="17" x="0" y="24752" class="color4"/><use y="24752" xlink:href="#g2"/><rect width="8" height="17" x="672" y="24769" class="foreground"/><use y="24769" xlink:href="#g54"/></g><g><rect width="136" height="17" x="0" y="25228" class="color4"/><use y="25228" xlink:href="#g2"/><rect width="8" height="17" x="680" y="25245" class="foreground"/><use y="25245" xlink:href="#g55"/></g><g><rect width="136" height="17" x="0" y="25704" class="color4"/><use y="25704" xlink:href="#g2"/><rect width="8" height="17" x="688" y="25721" class="foreground"/><use y="25721" xlink:href="#g56"/></g><g><rect width="136" height="17" x="0" y="26180" class="color4"/><use y="26180" xlink:href="#g2"/><rect width="8" height="17" x="696" y="26197" class="foreground"/><use y="26197" xlink:href="#g57"/></g><g><rect width="136" height="17" x="0" y="26656" class="color4"/><use y="26656" xlink:href="#g2"/><rect width="8" height="17" x="704" y="26673" class="foreground"/><use y="26673" xlink:href="#g58"/></g><g><rect width="136" height="17" x="0" y="27132" class="color4"/><use y="27132" xlink:href="#g2"/><rect width="8" height="17" x="712" y="27149" class="foreground"/><use y="27149" xlink:href="#g59"/></g><g><rect width="136" height="17" x="0" y="27608" class="color4"/><use y="27608" xlink:href="#g2"/><rect width="8" height="17" x="712" y="27625" class="foreground"/><use y="27625" xlink:href="#g59"/></g><g><rect width="136" height="17" x="0" y="28084" class="color4"/><use y="28084" xlink:href="#g2"/><use y="28101" xlink:href="#g60"/><rect width="8" height="17" x="0" y="28118" class="foreground"/><use y="28118" xlink:href="#g1"/></g><g><rect width="136" height="17" x="0" y="28560" class="color4"/><use y="28560" xlink:href="#g2"/><use y="28577" xlink:href="#g60"/><use y="28594" xlink:href="#g61"/><rect width="8" height="17" x="0" y="28611" class="foreground"/><use y="28611" xlink:href="#g1"/></g><g><rect width="136" height="17" x="0" y="29036" class="color4"/><use y="29036" xlink:href="#g2"/><use y="29053" xlink:href="#g60"/><use y="29070" xlink:href="#g61"/><rect width="8" height="17" x="456" y="29087" class="foreground"/><use y="29087" xlink:href="#g62"/></g><g><rect width="136" height="17" x="0" y="29512" class="color4"/><use y="29512" xlink:href="#g2"/><use y="29529" xlink:href="#g60"/><use y="29546" xlink:href="#g61"/><use y="29563" xlink:href="#g63"/><use y="29580" xlink:href="#g64"/><rect width="8" height="17" x="0" y="29597" class="foreground"/><use y="29597" xlink:href="#g1"/></g><g><rect width="136" height="17" x="0" y="29988" class="color4"/><use y="29988" xlink:href="#g2"/><use y="30005" xlink:href="#g60"/><use y="30022" xlink:href="#g61"/><use y="30039" xlink:href="#g63"/><use y="30056" xlink:href="#g64"/><use y="30073" xlink:href="#g65"/><use y="30090" xlink:href="#g66"/><rect width="8" height="17" x="0" y="30107" class="foreground"/><use y="30107" xlink:href="#g1"/></g><g><rect width="136" height="17" x="0" y="30464" class="color4"/><use y="30464" xlink:href="#g2"/><use y="30481" xlink:href="#g60"/><use y="30498" xlink:href="#g61"/><use y="30515" xlink:href="#g63"/><use y="30532" xlink:href="#g64"/><use y="30549" xlink:href="#g65"/><use y="30566" xlink:href="#g66"/><use y="30583" xlink:href="#g67"/><rect width="8" height="17" x="0" y="30600" class="foreground"/><use y="30600" xlink:href="#g1"/></g><g><rect width="136" height="17" x="0" y="30940" class="color4"/><use y="30940" xlink:href="#g2"/><use y="30957" xlink:href="#g60"/><use y="30974" xlink:href="#g61"/><use y="30991" xlink:href="#g63"/><use y="31008" xlink:href="#g64"/><use y="31025" xlink:href="#g65"/><use y="31042" xlink:href="#g66"/><use y="31059" xlink:href="#g67"/><use y="31076" xlink:href="#g68"/><rect width="8" height="17" x="0" y="31093" class="foreground"/><use y="31093" xlink:href="#g1"/></g><g><rect width="136" height="17" x="0" y="31416" class="color4"/><use y="31416" xlink:href="#g2"/><use y="31433" xlink:href="#g60"/><use y="31450" xlink:href="#g61"/><use y="31467" xlink:href="#g63"/><use y="31484" xlink:href="#g64"/><use y="31501" xlink:href="#g65"/><use y="31518" xlink:href="#g66"/><use y="31535" xlink:href="#g67"/><use y="31552" xlink:href="#g68"/><rect width="8" height="17" x="352" y="31569" class="foreground"/><use y="31569" xlink:href="#g69"/></g><g><rect width="136" height="17" x="0" y="31892" class="color4"/><use y="31892" xlink:href="#g2"/><use y="31909" xlink:href="#g60"/><use y="31926" xlink:href="#g61"/><use y="31943" xlink:href="#g63"/><use y="31960" xlink:href="#g64"/><use y="31977" xlink:href="#g65"/><use y="31994" xlink:href="#g66"/><use y="32011" xlink:href="#g67"/><use y="32028" xlink:href="#g68"/><rect width="8" height="17" x="352" y="32045" class="foreground"/><use y="32045" xlink:href="#g70"/><rect width="8" height="17" x="0" y="32062" class="foreground"/><use y="32062" xlink:href="#g71"/></g><g><rect width="136" height="17" x="0" y="32368" class="color4"/><use y="32368" xlink:href="#g2"/><use y="32385" xlink:href="#g60"/><use y="32402" xlink:href="#g61"/><use y="32419" xlink:href="#g63"/><use y="32436" xlink:href="#g64"/><use y="32453" xlink:href="#g65"/><use y="32470" xlink:href="#g66"/><use y="32487" xlink:href="#g67"/><use y="32504" xlink:href="#g68"/><rect width="8" height="17" x="352" y="32521" class="foreground"/><use y="32521" xlink:href="#g70"/><rect width="136" height="17" x="0" y="32538" class="color4"/><use y="32538" xlink:href="#g2"/><rect width="8" height="17" x="24" y="32555" class="foreground"/><use y="32555" xlink:href="#g3"/></g><g><rect width="136" height="17" x="0" y="32844" class="color4"/><use y="32844" xlink:href="#g2"/><use y="32861" xlink:href="#g60"/><use y="32878" xlink:href="#g61"/><use y="32895" xlink:href="#g63"/><use y="32912" xlink:href="#g64"/><use y="32929" xlink:href="#g65"/><use y="32946" xlink:href="#g66"/><use y="32963" xlink:href="#g67"/><use y="32980" xlink:href="#g68"/><rect width="8" height="17" x="352" y="32997" class="foreground"/><use y="32997" xlink:href="#g70"/><rect width="136" height="17" x="0" y="33014" class="color4"/><use y="33014" xlink:href="#g2"/><use y="33031" xlink:href="#g72"/><rect width="8" height="17" x="0" y="33048" class="foreground"/><use y="33048" xlink:href="#g1"/></g></g></svg></svg>