<svg xmlns="http://www.w3.org/2000/svg" xmlns:xlink="http://www.w3.org/1999/xlink" id="terminal" width="1016" baseProfile="full" version="1.1" viewBox="0 0 1016 563"><defs><termtosvg:template_settings xmlns:termtosvg="https://github.com/nbedos/termtosvg"><termtosvg:screen_geometry columns="127" rows="33"/><termtosvg:animation type="css"/></termtosvg:template_settings><style id="generated-style" type="text/css">@keyframes roll{0%{transform:translateY(0)}.741%{transform:translateY(-578px)}3.268%{transform:translateY(-1156px)}3.759%{transform:translateY(-1734px)}4.446%{transform:translateY(-2312px)}4.815%{transform:translateY(-2890px)}5.419%{transform:translateY(-3468px)}5.743%{transform:translateY(-4046px)}6.293%{transform:translateY(-4624px)}6.717%{transform:translateY(-5202px)}7.574%{transform:translateY(-5780px)}8.922%{transform:translateY(-6358px)}8.929%{transform:translateY(-6936px)}8.933%{transform:translateY(-7514px)}8.939%{transform:translateY(-8092px)}12.187%{transform:translateY(-8670px)}13.04%{transform:translateY(-9248px)}13.539%{transform:translateY(-9826px)}15.437%{transform:translateY(-10404px)}17.879%{transform:translateY(-10982px)}17.896%{transform:translateY(-11560px)}18.002%{transform:translateY(-12138px)}21.734%{transform:translateY(-12716px)}27.409%{transform:translateY(-13294px)}32.043%{transform:translateY(-13872px)}32.056%{transform:translateY(-14450px)}41.04%{transform:translateY(-15028px)}41.347%{transform:translateY(-15606px)}42.802%{transform:translateY(-16184px)}42.846%{transform:translateY(-16762px)}43.352%{transform:translateY(-17340px)}44.53%{transform:translateY(-17918px)}45.537%{transform:translateY(-18496px)}45.599%{transform:translateY(-19074px)}52.158%{transform:translateY(-19652px)}86.686%{transform:translateY(-20230px)}86.724%{transform:translateY(-20808px)}96.585%{transform:translateY(-21386px)}}#screen{font-family:&apos;DejaVu Sans Mono&apos;,monospace;font-style:normal;font-size:14px}text{dominant-baseline:text-before-edge;white-space:pre}:root{--animation-duration:29286ms}#screen_view{animation-duration:29286ms;animation-iteration-count:infinite;animation-name:roll;animation-timing-function:steps(1,end);animation-fill-mode:forwards}</style><style id="user-style" type="text/css">.foreground{fill:#ccc}.background{fill:#0c0c0c}.color1{fill:#c50f1f}.color2{fill:#13a10e}.color4{fill:#0037da}.color6{fill:#3a96dd}.color10{fill:#16c60c}.color14{fill:#61d6d6}.color15{fill:#f2f2f2}</style></defs><svg id="screen" width="1016" height="561" preserveAspectRatio="xMidYMin slice" viewBox="0 0 1016 561"><rect width="100%" height="100%" x="0" y="0" class="background"/><defs><g id="g2"><text x="0" class="foreground" textLength="144">nikhil@purpleterm</text><text x="144" class="color10" font-weight="bold" textLength="216">~/Projects/kindle-send/dist</text></g><g id="g3"><text x="0" class="color15" font-weight="bold" textLength="24">%</text></g><g id="g4"><text x="0" class="color15" font-weight="bold" textLength="24">%</text><text x="24" class="foreground" textLength="8">c</text></g><g id="g5"><text x="0" class="color15" font-weight="bold" textLength="24">%</text><text x="24" class="foreground" textLength="16">ca</text></g><g id="g6"><text x="0" class="color15" font-weight="bold" textLength="24">%</text><text x="24" class="foreground" textLength="24">cat</text></g><g id="g7"><text x="0" class="color15" font-weight="bold" textLength="24">%</text><text x="24" class="foreground" textLength="32">cat</text></g><g id="g8"><text x="0" class="color15" font-weight="bold" textLength="24">%</text><text x="24" class="foreground" textLength="40">cat u</text></g><g id="g9"><text x="0" class="color15" font-weight="bold" textLength="24">%</text><text x="24" class="foreground" textLength="48">cat ur</text></g><g id="g10"><text x="0" class="color15" font-weight="bold" textLength="24">%</text><text x="24" class="foreground" textLength="56">cat url</text></g><g id="g11"><text x="0" class="color15" font-weight="bold" textLength="24">%</text><text x="24" class="foreground" textLength="64">cat urls</text></g><g id="g12"><text x="0" class="color15" font-weight="bold" textLength="24">%</text><text x="24" class="foreground" textLength="96">cat urls.txt</text></g><g id="g13"><text x="0" class="color15" font-weight="bold" textLength="24">%</text><text x="24" class="foreground" textLength="96">cat urls.txt</text></g><g id="g14"><text x="0" class="color15" font-weight="bold" textLength="24">%</text><text x="24" class="foreground" textLength="992">cat urls.txt</text></g><g id="g15"><text x="0" class="foreground" textLength="256">https://fs.blog/smart-decisions/</text></g><g id="g16"><text x="0" class="foreground" textLength="448">https://www.franzoni.eu/machine-learning-a-sound-primer/</text></g><g id="g17"><text x="0" class="foreground" textLength="368">https://newworldeconomics.com//how-banks-work/</text></g><g id="g19"><text x="0" class="color15" font-weight="bold" textLength="24">%</text><text x="24" class="foreground" textLength="8">k</text></g><g id="g20"><text x="0" class="color15" font-weight="bold" textLength="24">%</text><text x="24" class="foreground" textLength="16">ki</text></g><g id="g21"><text x="0" class="color15" font-weight="bold" textLength="24">%</text><text x="24" class="foreground" textLength="24">kin</text></g><g id="g22"><text x="0" class="color15" font-weight="bold" textLength="24">%</text><text x="24" class="foreground" textLength="448">kindle-send --linkfile urls.txt --title &quot;Sunday reading&quot;</text></g><g id="g23"><text x="0" class="color15" font-weight="bold" textLength="24">%</text><text x="24" class="foreground" textLength="992">kindle-send --linkfile urls.txt --title &quot;Sunday reading&quot;</text></g><g id="g24"><text x="0" class="color2" textLength="160">Loaded configuration</text></g><g id="g25"><text x="0" class="color2" textLength="880">Fetched https://fs.blog/smart-decisions/ --&gt; How to Make Smart Decisions Without Getting Lucky - Farnam Street</text></g><g id="g26"><text x="0" class="color2" textLength="808">Fetched https://www.franzoni.eu/machine-learning-a-sound-primer/ --&gt; Machine Learning: a sound primer</text></g><g id="g27"><text x="0" class="color2" textLength="760">Fetched https://newworldeconomics.com//how-banks-work/ --&gt; How Banks Work | New World Economics</text></g><g id="g28"><text x="0" class="color6" textLength="456">Embedding images in How Banks Work | New World Economics</text></g><g id="g29"><text x="0" class="color14" font-weight="bold" textLength="144">Downloading Images</text></g><g id="g30"><text x="0" class="color6" textLength="688">Embedding images in How to Make Smart Decisions Without Getting Lucky - Farnam Street</text></g><g id="g31"><text x="0" class="foreground" textLength="424">Embedding images in Machine Learning: a sound primer</text></g><g id="g32"><text x="0" class="color1" textLength="1016">Couldn&apos;t add image http://www.newworldeconomics.com/archives/2008/020308_files/WFCbsheet.gif : Error retrieving &quot;http://www.new</text></g><g id="g33"><text x="0" class="color1" textLength="1016">worldeconomics.com/archives/2008/020308_files/WFCbsheet.gif&quot; from source: Error retrieving &quot;http://www.newworldeconomics.com/ar</text></g><g id="g34"><text x="0" class="color1" textLength="424">chives/2008/020308_files/WFCbsheet.gif&quot; from source:</text></g><g id="g35"><text x="0" class="color1" textLength="848">stat http://www.newworldeconomics.com/archives/2008/020308_files/WFCbsheet.gif: no such file or directory</text></g><g id="g36"><text x="0" class="color1" textLength="264">cannot get file, bad return code</text></g><g id="g37"><text x="0" class="color1" textLength="160">missing data prefix</text></g><g id="g38"><text x="0" class="color2" textLength="864">Downloaded image https://149664534.v2.pressablecdn.com/wp-content/uploads/2018/08/acquiring-wisdom-white.jpg</text></g><g id="g39"><text x="0" class="color2" textLength="984">Downloaded image https://149664534.v2.pressablecdn.com/wp-content/uploads/2018/04/Ultimate-Guide-Making-Smart-Decisions.png</text></g><g id="g40"><text x="0" class="color2" textLength="1016">Setting img src from https://149664534.v2.pressablecdn.com/wp-content/uploads/2018/08/acquiring-wisdom-white.jpg to ../images/a</text></g><g id="g41"><text x="0" class="color2" textLength="208">cquiring-wisdom-white.jpg</text></g><g id="g42"><text x="0" class="color2" textLength="1016">Setting img src from https://149664534.v2.pressablecdn.com/wp-content/uploads/2018/04/Ultimate-Guide-Making-Smart-Decisions.png</text></g><g id="g43"><text x="0" class="color2" textLength="448">to ../images/Ultimate-Guide-Making-Smart-Decisions.png</text></g><g id="g44"><text x="0" class="color2" textLength="920">Downloaded image https://www.franzoni.eu/content/images/size/w1200/2019/07/lacie-slezak-yHG6llFLjS0-unsplash-1-.jpg</text></g><g id="g45"><text x="0" class="color2" textLength="1016">Setting img src from https://www.franzoni.eu/content/images/size/w1200/2019/07/lacie-slezak-yHG6llFLjS0-unsplash-1-.jpg to ../i</text></g><g id="g46"><text x="0" class="color2" textLength="376">mages/lacie-slezak-yHG6llFLjS0-unsplash-1-.jpg</text></g><g id="g47"><text x="0" class="color2" textLength="720">Downloaded image https://newworldeconomics.com//wp-content/uploads/2016/12/WFCyields-1.gif</text></g><g id="g48"><text x="0" class="color2" textLength="704">Downloaded image https://newworldeconomics.com//wp-content/uploads/2016/12/WFCincome.gif</text></g><g id="g49"><text x="0" class="color2" textLength="992">Setting img src from https://newworldeconomics.com//wp-content/uploads/2016/12/WFCyields-1.gif to ../images/WFCyields-1.gif</text></g><g id="g50"><text x="0" class="color2" textLength="960">Setting img src from https://newworldeconomics.com//wp-content/uploads/2016/12/WFCincome.gif to ../images/WFCincome.gif</text></g><g id="g51"><text x="0" class="color2" textLength="128">Added 3 articles</text></g><g id="g52"><text x="0" class="color14" font-weight="bold" textLength="96">Sending mail</text></g><g id="g53"><text x="0" class="color10" font-weight="bold" textLength="352">Mailed 1 files to purple_terminal@kindle.com</text></g><g id="g54"><text x="0" class="color10" font-weight="bold" textLength="352">Mailed 1 files to purple_terminal@kindle.com</text><text x="352" class="background" font-weight="bold" textLength="8">%</text></g><g id="g55"><text x="0" class="color15" font-weight="bold" textLength="24">%</text></g></defs><g id="screen_view"><g><rect width="8" height="17" x="0" y="0" class="foreground"/><use y="0" xlink:href="#g1"/></g><g><rect width="136" height="17" x="0" y="578" class="color4"/><use y="578" xlink:href="#g2"/><rect width="8" height="17" x="24" y="595" class="foreground"/><use y="595" xlink:href="#g3"/></g><g><rect width="136" height="17" x="0" y="1156" class="color4"/><use y="1156" xlink:href="#g2"/><rect width="8" height="17" x="32" y="1173" class="foreground"/><use y="1173" xlink:href="#g4"/></g><g><rect width="136" height="17" x="0" y="1734" class="color4"/><use y="1734" xlink:href="#g2"/><rect width="8" height="17" x="40" y="1751" class="foreground"/><use y="1751" xlink:href="#g5"/></g><g><rect width="136" height="17" x="0" y="2312" class="color4"/><use y="2312" xlink:href="#g2"/><rect width="8" height="17" x="48" y="2329" class="foreground"/><use y="2329" xlink:href="#g6"/></g><g><rect width="136" height="17" x="0" y="2890" class="color4"/><use y="2890" xlink:href="#g2"/><rect width="8" height="17" x="56" y="2907" class="foreground"/><use y="2907" xlink:href="#g7"/></g><g><rect width="136" height="17" x="0" y="3468" class="color4"/><use y="3468" xlink:href="#g2"/><rect width="8" height="17" x="64" y="3485" class="foreground"/><use y="3485" xlink:href="#g8"/></g><g><rect width="136" height="17" x="0" y="4046" class="color4"/><use y="4046" xlink:href="#g2"/><rect width="8" height="17" x="72" y="4063" class="foreground"/><use y="4063" xlink:href="#g9"/></g><g><rect width="136" height="17" x="0" y="4624" class="color4"/><use y="4624" xlink:href="#g2"/><rect width="8" height="17" x="80" y="4641" class="foreground"/><use y="4641" xlink:href="#g10"/></g><g><rect width="136" height="17" x="0" y="5202" class="color4"/><use y="5202" xlink:href="#g2"/><rect width="8" height="17" x="88" y="5219" class="foreground"/><use y="5219" xlink:href="#g11"/></g><g><rect width="136" height="17" x="0" y="5780" class="color4"/><use y="5780" xlink:href="#g2"/><rect width="8" height="17" x="128" y="5797" class="foreground"/><use y="5797" xlink:href="#g12"/></g><g><rect width="136" height="17" x="0" y="6358" class="color4"/><use y="6358" xlink:href="#g2"/><rect width="8" height="17" x="120" y="6375" class="foreground"/><use y="6375" xlink:href="#g13"/></g><g><rect width="136" height="17" x="0" y="6936" class="color4"/><use y="6936" xlink:href="#g2"/><use y="6953" xlink:href="#g14"/><use y="6970" xlink:href="#g15"/><use y="6987" xlink:href="#g16"/><use y="7004" xlink:href="#g17"/><rect width="8" height="17" x="0" y="7021" class="foreground"/><use y="7021" xlink:href="#g18"/></g><g><rect width="136" height="17" x="0" y="7514" class="color4"/><use y="7514" xlink:href="#g2"/><use y="7531" xlink:href="#g14"/><use y="7548" xlink:href="#g15"/><use y="7565" xlink:href="#g16"/><use y="7582" xlink:href="#g17"/><rect width="136" height="17" x="0" y="7599" class="color4"/><use y="7599" xlink:href="#g2"/><rect width="8" height="17" x="24" y="7616" class="foreground"/><use y="7616" xlink:href="#g3"/></g><g><rect width="136" height="17" x="0" y="8092" class="color4"/><use y="8092" xlink:href="#g2"/><use y="8109" xlink:href="#g14"/><use y="8126" xlink:href="#g15"/><use y="8143" xlink:href="#g16"/><use y="8160" xlink:href="#g17"/><rect width="136" height="17" x="0" y="8177" class="color4"/><use y="8177" xlink:href="#g2"/><rect width="8" height="17" x="24" y="8194" class="foreground"/><use y="8194" xlink:href="#g3"/></g><g><rect width="136" height="17" x="0" y="8670" class="color4"/><use y="8670" xlink:href="#g2"/><use y="8687" xlink:href="#g14"/><use y="8704" xlink:href="#g15"/><use y="8721" xlink:href="#g16"/><use y="8738" xlink:href="#g17"/><rect width="136" height="17" x="0" y="8755" class="color4"/><use y="8755" xlink:href="#g2"/><rect width="8" height="17" x="32" y="8772" class="foreground"/><use y="8772" xlink:href="#g19"/></g><g><rect width="136" height="17" x="0" y="9248" class="color4"/><use y="9248" xlink:href="#g2"/><use y="9265" xlink:href="#g14"/><use y="9282" xlink:href="#g15"/><use y="9299" xlink:href="#g16"/><use y="9316" xlink:href="#g17"/><rect width="136" height="17" x="0" y="9333" class="color4"/><use y="9333" xlink:href="#g2"/><rect width="8" height="17" x="40" y="9350" class="foreground"/><use y="9350" xlink:href="#g20"/></g><g><rect width="136" height="17" x="0" y="9826" class="color4"/><use y="9826" xlink:href="#g2"/><use y="9843" xlink:href="#g14"/><use y="9860" xlink:href="#g15"/><use y="9877" xlink:href="#g16"/><use y="9894" xlink:href="#g17"/><rect width="136" height="17" x="0" y="9911" class="color4"/><use y="9911" xlink:href="#g2"/><rect width="8" height="17" x="48" y="9928" class="foreground"/><use y="9928" xlink:href="#g21"/></g><g><rect width="136" height="17" x="0" y="10404" class="color4"/><use y="10404" xlink:href="#g2"/><use y="10421" xlink:href="#g14"/><use y="10438" xlink:href="#g15"/><use y="10455" xlink:href="#g16"/><use y="10472" xlink:href="#g17"/><rect width="136" height="17" x="0" y="10489" class="color4"/><use y="10489" xlink:href="#g2"/><rect width="8" height="17" x="472" y="10506" class="foreground"/><use y="10506" xlink:href="#g22"/></g><g><rect width="136" height="17" x="0" y="10982" class="color4"/><use y="10982" xlink:href="#g2"/><use y="10999" xlink:href="#g14"/><use y="11016" xlink:href="#g15"/><use y="11033" xlink:href="#g16"/><use y="11050" xlink:href="#g17"/><rect width="136" height="17" x="0" y="11067" class="color4"/><use y="11067" xlink:href="#g2"/><rect width="8" height="17" x="472" y="11084" class="foreground"/><use y="11084" xlink:href="#g22"/></g><g><rect width="136" height="17" x="0" y="11560" class="color4"/><use y="11560" xlink:href="#g2"/><use y="11577" xlink:href="#g14"/><use y="11594" xlink:href="#g15"/><use y="11611" xlink:href="#g16"/><use y="11628" xlink:href="#g17"/><rect width="136" height="17" x="0" y="11645" class="color4"/><use y="11645" xlink:href="#g2"/><use y="11662" xlink:href="#g23"/><rect width="8" height="17" x="0" y="11679" class="foreground"/><use y="11679" xlink:href="#g1"/></g><g><rect width="136" height="17" x="0" y="12138" class="color4"/><use y="12138" xlink:href="#g2"/><use y="12155" xlink:href="#g14"/><use y="12172" xlink:href="#g15"/><use y="12189" xlink:href="#g16"/><use y="12206" xlink:href="#g17"/><rect width="136" height="17" x="0" y="12223" class="color4"/><use y="12223" xlink:href="#g2"/><use y="12240" xlink:href="#g23"/><use y="12257" xlink:href="#g24"/><rect width="8" height="17" x="0" y="12274" class="foreground"/><use y="12274" xlink:href="#g1"/></g><g><rect width="136" height="17" x="0" y="12716" class="color4"/><use y="12716" xlink:href="#g2"/><use y="12733" xlink:href="#g14"/><use y="12750" xlink:href="#g15"/><use y="12767" xlink:href="#g16"/><use y="12784" xlink:href="#g17"/><rect width="136" height="17" x="0" y="12801" class="color4"/><use y="12801" xlink:href="#g2"/><use y="12818" xlink:href="#g23"/><use y="12835" xlink:href="#g24"/><use y="12852" xlink:href="#g25"/><rect width="8" height="17" x="0" y="12869" class="foreground"/><use y="12869" xlink:href="#g1"/></g><g><rect width="136" height="17" x="0" y="13294" class="color4"/><use y="13294" xlink:href="#g2"/><use y="13311" xlink:href="#g14"/><use y="13328" xlink:href="#g15"/><use y="13345" xlink:href="#g16"/><use y="13362" xlink:href="#g17"/><rect width="136" height="17" x="0" y="13379" class="color4"/><use y="13379" xlink:href="#g2"/><use y="13396" xlink:href="#g23"/><use y="13413" xlink:href="#g24"/><use y="13430" xlink:href="#g25"/><use y="13447" xlink:href="#g26"/><rect width="8" height="17" x="0" y="13464" class="foreground"/><use y="13464" xlink:href="#g1"/></g><g><rect width="136" height="17" x="0" y="13872" class="color4"/><use y="13872" xlink:href="#g2"/><use y="13889" xlink:href="#g14"/><use y="13906" xlink:href="#g15"/><use y="13923" xlink:href="#g16"/><use y="13940" xlink:href="#g17"/><rect width="136" height="17" x="0" y="13957" class="color4"/><use y="13957" xlink:href="#g2"/><use y="13974" xlink:href="#g23"/><use y="13991" xlink:href="#g24"/><use y="14008" xlink:href="#g25"/><use y="14025" xlink:href="#g26"/><use y="14042" xlink:href="#g27"/><rect width="8" height="17" x="0" y="14059" class="foreground"/><use y="14059" xlink:href="#g1"/></g><g><rect width="136" height="17" x="0" y="14450" class="color4"/><use y="14450" xlink:href="#g2"/><use y="14467" xlink:href="#g14"/><use y="14484" xlink:href="#g15"/><use y="14501" xlink:href="#g16"/><use y="14518" xlink:href="#g17"/><rect width="136" height="17" x="0" y="14535" class="color4"/><use y="14535" xlink:href="#g2"/><use y="14552" xlink:href="#g23"/><use y="14569" xlink:href="#g24"/><use y="14586" xlink:href="#g25"/><use y="14603" xlink:href="#g26"/><use y="14620" xlink:href="#g27"/><use y="14637" xlink:href="#g28"/><use y="14654" xlink:href="#g29"/><use y="14671" xlink:href="#g30"/><use y="14688" xlink:href="#g29"/><use y="14705" xlink:href="#g31"/><use y="14722" xlink:href="#g29"/><rect width="8" height="17" x="0" y="14739" class="foreground"/><use y="14739" xlink:href="#g1"/></g><g><rect width="136" height="17" x="0" y="15028" class="color4"/><use y="15028" xlink:href="#g2"/><use y="15045" xlink:href="#g14"/><use y="15062" xlink:href="#g15"/><use y="15079" xlink:href="#g16"/><use y="15096" xlink:href="#g17"/><rect width="136" height="17" x="0" y="15113" class="color4"/><use y="15113" xlink:href="#g2"/><use y="15130" xlink:href="#g23"/><use y="15147" xlink:href="#g24"/><use y="15164" xlink:href="#g25"/><use y="15181" xlink:href="#g26"/><use y="15198" xlink:href="#g27"/><use y="15215" xlink:href="#g28"/><use y="15232" xlink:href="#g29"/><use y="15249" xlink:href="#g30"/><use y="15266" xlink:href="#g29"/><use y="15283" xlink:href="#g31"/><use y="15300" xlink:href="#g29"/><use y="15317" xlink:href="#g32"/><use y="15334" xlink:href="#g33"/><use y="15351" xlink:href="#g34"/><use y="15368" xlink:href="#g35"/><use y="15385" xlink:href="#g36"/><use y="15402" xlink:href="#g37"/><use y="15419" xlink:href="#g29"/><rect width="8" height="17" x="0" y="15436" class="foreground"/><use y="15436" xlink:href="#g1"/></g><g><rect width="136" height="17" x="0" y="15606" class="color4"/><use y="15606" xlink:href="#g2"/><use y="15623" xlink:href="#g14"/><use y="15640" xlink:href="#g15"/><use y="15657" xlink:href="#g16"/><use y="15674" xlink:href="#g17"/><rect width="136" height="17" x="0" y="15691" class="color4"/><use y="15691" xlink:href="#g2"/><use y="15708" xlink:href="#g23"/><use y="15725" xlink:href="#g24"/><use y="15742" xlink:href="#g25"/><use y="15759" xlink:href="#g26"/><use y="15776" xlink:href="#g27"/><use y="15793" xlink:href="#g28"/><use y="15810" xlink:href="#g29"/><use y="15827" xlink:href="#g30"/><use y="15844" xlink:href="#g29"/><use y="15861" xlink:href="#g31"/><use y="15878" xlink:href="#g29"/><use y="15895" xlink:href="#g32"/><use y="15912" xlink:href="#g33"/><use y="15929" xlink:href="#g34"/><use y="15946" xlink:href="#g35"/><use y="15963" xlink:href="#g36"/><use y="15980" xlink:href="#g37"/><use y="15997" xlink:href="#g29"/><use y="16014" xlink:href="#g38"/><use y="16031" xlink:href="#g29"/><rect width="8" height="17" x="0" y="16048" class="foreground"/><use y="16048" xlink:href="#g1"/></g><g><rect width="136" height="17" x="0" y="16184" class="color4"/><use y="16184" xlink:href="#g2"/><use y="16201" xlink:href="#g14"/><use y="16218" xlink:href="#g15"/><use y="16235" xlink:href="#g16"/><use y="16252" xlink:href="#g17"/><rect width="136" height="17" x="0" y="16269" class="color4"/><use y="16269" xlink:href="#g2"/><use y="16286" xlink:href="#g23"/><use y="16303" xlink:href="#g24"/><use y="16320" xlink:href="#g25"/><use y="16337" xlink:href="#g26"/><use y="16354" xlink:href="#g27"/><use y="16371" xlink:href="#g28"/><use y="16388" xlink:href="#g29"/><use y="16405" xlink:href="#g30"/><use y="16422" xlink:href="#g29"/><use y="16439" xlink:href="#g31"/><use y="16456" xlink:href="#g29"/><use y="16473" xlink:href="#g32"/><use y="16490" xlink:href="#g33"/><use y="16507" xlink:href="#g34"/><use y="16524" xlink:href="#g35"/><use y="16541" xlink:href="#g36"/><use y="16558" xlink:href="#g37"/><use y="16575" xlink:href="#g29"/><use y="16592" xlink:href="#g38"/><use y="16609" xlink:href="#g29"/><use y="16626" xlink:href="#g39"/><use y="16643" xlink:href="#g40"/><use y="16660" xlink:href="#g41"/><rect width="8" height="17" x="0" y="16677" class="color2"/><use y="16677" xlink:href="#g1"/></g><g><rect width="136" height="17" x="0" y="16762" class="color4"/><use y="16762" xlink:href="#g2"/><use y="16779" xlink:href="#g14"/><use y="16796" xlink:href="#g15"/><use y="16813" xlink:href="#g16"/><use y="16830" xlink:href="#g17"/><rect width="136" height="17" x="0" y="16847" class="color4"/><use y="16847" xlink:href="#g2"/><use y="16864" xlink:href="#g23"/><use y="16881" xlink:href="#g24"/><use y="16898" xlink:href="#g25"/><use y="16915" xlink:href="#g26"/><use y="16932" xlink:href="#g27"/><use y="16949" xlink:href="#g28"/><use y="16966" xlink:href="#g29"/><use y="16983" xlink:href="#g30"/><use y="17000" xlink:href="#g29"/><use y="17017" xlink:href="#g31"/><use y="17034" xlink:href="#g29"/><use y="17051" xlink:href="#g32"/><use y="17068" xlink:href="#g33"/><use y="17085" xlink:href="#g34"/><use y="17102" xlink:href="#g35"/><use y="17119" xlink:href="#g36"/><use y="17136" xlink:href="#g37"/><use y="17153" xlink:href="#g29"/><use y="17170" xlink:href="#g38"/><use y="17187" xlink:href="#g29"/><use y="17204" xlink:href="#g39"/><use y="17221" xlink:href="#g40"/><use y="17238" xlink:href="#g41"/><use y="17255" xlink:href="#g42"/><use y="17272" xlink:href="#g43"/><rect width="8" height="17" x="0" y="17289" class="foreground"/><use y="17289" xlink:href="#g1"/></g><g><use y="17340" xlink:href="#g15"/><use y="17357" xlink:href="#g16"/><use y="17374" xlink:href="#g17"/><rect width="136" height="17" x="0" y="17391" class="color4"/><use y="17391" xlink:href="#g2"/><use y="17408" xlink:href="#g23"/><use y="17425" xlink:href="#g24"/><use y="17442" xlink:href="#g25"/><use y="17459" xlink:href="#g26"/><use y="17476" xlink:href="#g27"/><use y="17493" xlink:href="#g28"/><use y="17510" xlink:href="#g29"/><use y="17527" xlink:href="#g30"/><use y="17544" xlink:href="#g29"/><use y="17561" xlink:href="#g31"/><use y="17578" xlink:href="#g29"/><use y="17595" xlink:href="#g32"/><use y="17612" xlink:href="#g33"/><use y="17629" xlink:href="#g34"/><use y="17646" xlink:href="#g35"/><use y="17663" xlink:href="#g36"/><use y="17680" xlink:href="#g37"/><use y="17697" xlink:href="#g29"/><use y="17714" xlink:href="#g38"/><use y="17731" xlink:href="#g29"/><use y="17748" xlink:href="#g39"/><use y="17765" xlink:href="#g40"/><use y="17782" xlink:href="#g41"/><use y="17799" xlink:href="#g42"/><use y="17816" xlink:href="#g43"/><use y="17833" xlink:href="#g44"/><use y="17850" xlink:href="#g45"/><use y="17867" xlink:href="#g46"/><rect width="8" height="17" x="0" y="17884" class="foreground"/><use y="17884" xlink:href="#g1"/></g><g><use y="17918" xlink:href="#g17"/><rect width="136" height="17" x="0" y="17935" class="color4"/><use y="17935" xlink:href="#g2"/><use y="17952" xlink:href="#g23"/><use y="17969" xlink:href="#g24"/><use y="17986" xlink:href="#g25"/><use y="18003" xlink:href="#g26"/><use y="18020" xlink:href="#g27"/><use y="18037" xlink:href="#g28"/><use y="18054" xlink:href="#g29"/><use y="18071" xlink:href="#g30"/><use y="18088" xlink:href="#g29"/><use y="18105" xlink:href="#g31"/><use y="18122" xlink:href="#g29"/><use y="18139" xlink:href="#g32"/><use y="18156" xlink:href="#g33"/><use y="18173" xlink:href="#g34"/><use y="18190" xlink:href="#g35"/><use y="18207" xlink:href="#g36"/><use y="18224" xlink:href="#g37"/><use y="18241" xlink:href="#g29"/><use y="18258" xlink:href="#g38"/><use y="18275" xlink:href="#g29"/><use y="18292" xlink:href="#g39"/><use y="18309" xlink:href="#g40"/><use y="18326" xlink:href="#g41"/><use y="18343" xlink:href="#g42"/><use y="18360" xlink:href="#g43"/><use y="18377" xlink:href="#g44"/><use y="18394" xlink:href="#g45"/><use y="18411" xlink:href="#g46"/><use y="18428" xlink:href="#g47"/><use y="18445" xlink:href="#g29"/><rect width="8" height="17" x="0" y="18462" class="foreground"/><use y="18462" xlink:href="#g1"/></g><g><use y="18496" xlink:href="#g24"/><use y="18513" xlink:href="#g25"/><use y="18530" xlink:href="#g26"/><use y="18547" xlink:href="#g27"/><use y="18564" xlink:href="#g28"/><use y="18581" xlink:href="#g29"/><use y="18598" xlink:href="#g30"/><use y="18615" xlink:href="#g29"/><use y="18632" xlink:href="#g31"/><use y="18649" xlink:href="#g29"/><use y="18666" xlink:href="#g32"/><use y="18683" xlink:href="#g33"/><use y="18700" xlink:href="#g34"/><use y="18717" xlink:href="#g35"/><use y="18734" xlink:href="#g36"/><use y="18751" xlink:href="#g37"/><use y="18768" xlink:href="#g29"/><use y="18785" xlink:href="#g38"/><use y="18802" xlink:href="#g29"/><use y="18819" xlink:href="#g39"/><use y="18836" xlink:href="#g40"/><use y="18853" xlink:href="#g41"/><use y="18870" xlink:href="#g42"/><use y="18887" xlink:href="#g43"/><use y="18904" xlink:href="#g44"/><use y="18921" xlink:href="#g45"/><use y="18938" xlink:href="#g46"/><use y="18955" xlink:href="#g47"/><use y="18972" xlink:href="#g29"/><use y="18989" xlink:href="#g48"/><use y="19006" xlink:href="#g49"/><use y="19023" xlink:href="#g50"/><rect width="8" height="17" x="0" y="19040" class="foreground"/><use y="19040" xlink:href="#g1"/></g><g><use y="19074" xlink:href="#g25"/><use y="19091" xlink:href="#g26"/><use y="19108" xlink:href="#g27"/><use y="19125" xlink:href="#g28"/><use y="19142" xlink:href="#g29"/><use y="19159" xlink:href="#g30"/><use y="19176" xlink:href="#g29"/><use y="19193" xlink:href="#g31"/><use y="19210" xlink:href="#g29"/><use y="19227" xlink:href="#g32"/><use y="19244" xlink:href="#g33"/><use y="19261" xlink:href="#g34"/><use y="19278" xlink:href="#g35"/><use y="19295" xlink:href="#g36"/><use y="19312" xlink:href="#g37"/><use y="19329" xlink:href="#g29"/><use y="19346" xlink:href="#g38"/><use y="19363" xlink:href="#g29"/><use y="19380" xlink:href="#g39"/><use y="19397" xlink:href="#g40"/><use y="19414" xlink:href="#g41"/><use y="19431" xlink:href="#g42"/><use y="19448" xlink:href="#g43"/><use y="19465" xlink:href="#g44"/><use y="19482" xlink:href="#g45"/><use y="19499" xlink:href="#g46"/><use y="19516" xlink:href="#g47"/><use y="19533" xlink:href="#g29"/><use y="19550" xlink:href="#g48"/><use y="19567" xlink:href="#g49"/><use y="19584" xlink:href="#g50"/><use y="19601" xlink:href="#g51"/><rect width="8" height="17" x="0" y="19618" class="foreground"/><use y="19618" xlink:href="#g1"/></g><g><use y="19652" xlink:href="#g26"/><use y="19669" xlink:href="#g27"/><use y="19686" xlink:href="#g28"/><use y="19703" xlink:href="#g29"/><use y="19720" xlink:href="#g30"/><use y="19737" xlink:href="#g29"/><use y="19754" xlink:href="#g31"/><use y="19771" xlink:href="#g29"/><use y="19788" xlink:href="#g32"/><use y="19805" xlink:href="#g33"/><use y="19822" xlink:href="#g34"/><use y="19839" xlink:href="#g35"/><use y="19856" xlink:href="#g36"/><use y="19873" xlink:href="#g37"/><use y="19890" xlink:href="#g29"/><use y="19907" xlink:href="#g38"/><use y="19924" xlink:href="#g29"/><use y="19941" xlink:href="#g39"/><use y="19958" xlink:href="#g40"/><use y="19975" xlink:href="#g41"/><use y="19992" xlink:href="#g42"/><use y="20009" xlink:href="#g43"/><use y="20026" xlink:href="#g44"/><use y="20043" xlink:href="#g45"/><use y="20060" xlink:href="#g46"/><use y="20077" xlink:href="#g47"/><use y="20094" xlink:href="#g29"/><use y="20111" xlink:href="#g48"/><use y="20128" xlink:href="#g49"/><use y="20145" xlink:href="#g50"/><use y="20162" xlink:href="#g51"/><use y="20179" xlink:href="#g52"/><rect width="8" height="17" x="0" y="20196" class="foreground"/><use y="20196" xlink:href="#g1"/></g><g><use y="20230" xlink:href="#g26"/><use y="20247" xlink:href="#g27"/><use y="20264" xlink:href="#g28"/><use y="20281" xlink:href="#g29"/><use y="20298" xlink:href="#g30"/><use y="20315" xlink:href="#g29"/><use y="20332" xlink:href="#g31"/><use y="20349" xlink:href="#g29"/><use y="20366" xlink:href="#g32"/><use y="20383" xlink:href="#g33"/><use y="20400" xlink:href="#g34"/><use y="20417" xlink:href="#g35"/><use y="20434" xlink:href="#g36"/><use y="20451" xlink:href="#g37"/><use y="20468" xlink:href="#g29"/><use y="20485" xlink:href="#g38"/><use y="20502" xlink:href="#g29"/><use y="20519" xlink:href="#g39"/><use y="20536" xlink:href="#g40"/><use y="20553" xlink:href="#g41"/><use y="20570" xlink:href="#g42"/><use y="20587" xlink:href="#g43"/><use y="20604" xlink:href="#g44"/><use y="20621" xlink:href="#g45"/><use y="20638" xlink:href="#g46"/><use y="20655" xlink:href="#g47"/><use y="20672" xlink:href="#g29"/><use y="20689" xlink:href="#g48"/><use y="20706" xlink:href="#g49"/><use y="20723" xlink:href="#g50"/><use y="20740" xlink:href="#g51"/><use y="20757" xlink:href="#g52"/><rect width="8" height="17" x="352" y="20774" class="foreground"/><use y="20774" xlink:href="#g53"/></g><g><use y="20808" xlink:href="#g28"/><use y="20825" xlink:href="#g29"/><use y="20842" xlink:href="#g30"/><use y="20859" xlink:href="#g29"/><use y="20876" xlink:href="#g31"/><use y="20893" xlink:href="#g29"/><use y="20910" xlink:href="#g32"/><use y="20927" xlink:href="#g33"/><use y="20944" xlink:href="#g34"/><use y="20961" xlink:href="#g35"/><use y="20978" xlink:href="#g36"/><use y="20995" xlink:href="#g37"/><use y="21012" xlink:href="#g29"/><use y="21029" xlink:href="#g38"/><use y="21046" xlink:href="#g29"/><use y="21063" xlink:href="#g39"/><use y="21080" xlink:href="#g40"/><use y="21097" xlink:href="#g41"/><use y="21114" xlink:href="#g42"/><use y="21131" xlink:href="#g43"/><use y="21148" xlink:href="#g44"/><use y="21165" xlink:href="#g45"/><use y="21182" xlink:href="#g46"/><use y="21199" xlink:href="#g47"/><use y="21216" xlink:href="#g29"/><use y="21233" xlink:href="#g48"/><use y="21250" xlink:href="#g49"/><use y="21267" xlink:href="#g50"/><use y="21284" xlink:href="#g51"/><use y="21301" xlink:href="#g52"/><rect width="8" height="17" x="352" y="21318" class="foreground"/><use y="21318" xlink:href="#g54"/><rect width="136" height="17" x="0" y="21335" class="color4"/><use y="21335" xlink:href="#g2"/><rect width="8" height="17" x="24" y="21352" class="foreground"/><use y="21352" xlink:href="#g3"/></g><g><use y="21386" xlink:href="#g29"/><use y="21403" xlink:href="#g30"/><use y="21420" xlink:href="#g29"/><use y="21437" xlink:href="#g31"/><use y="21454" xlink:href="#g29"/><use y="21471" xlink:href="#g32"/><use y="21488" xlink:href="#g33"/><use y="21505" xlink:href="#g34"/><use y="21522" xlink:href="#g35"/><use y="21539" xlink:href="#g36"/><use y="21556" xlink:href="#g37"/><use y="21573" xlink:href="#g29"/><use y="21590" xlink:href="#g38"/><use y="21607" xlink:href="#g29"/><use y="21624" xlink:href="#g39"/><use y="21641" xlink:href="#g40"/><use y="21658" xlink:href="#g41"/><use y="21675" xlink:href="#g42"/><use y="21692" xlink:href="#g43"/><use y="21709" xlink:href="#g44"/><use y="21726" xlink:href="#g45"/><use y="21743" xlink:href="#g46"/><use y="21760" xlink:href="#g47"/><use y="21777" xlink:href="#g29"/><use y="21794" xlink:href="#g48"/><use y="21811" xlink:href="#g49"/><use y="21828" xlink:href="#g50"/><use y="21845" xlink:href="#g51"/><use y="21862" xlink:href="#g52"/><rect width="8" height="17" x="352" y="21879" class="foreground"/><use y="21879" xlink:href="#g54"/><rect width="136" height="17" x="0" y="21896" class="color4"/><use y="21896" xlink:href="#g2"/><use y="21913" xlink:href="#g55"/><rect width="8" height="17" x="0" y="21930" class="foreground"/><use y="21930" xlink:href="#g1"/></g></g></svg></svg>